<?xml version="1.0" encoding="utf-8"?>
<!-- Generator: Adobe Illustrator 18.0.0, SVG Export Plug-In . SVG Version: 6.00 Build 0)  -->
<!DOCTYPE svg PUBLIC "-//W3C//DTD SVG 1.1//EN" "http://www.w3.org/Graphics/SVG/1.1/DTD/svg11.dtd">
<svg version="1.1" id="Layer_1" xmlns="http://www.w3.org/2000/svg" xmlns:xlink="http://www.w3.org/1999/xlink" x="0px" y="0px"
	 viewBox="0 0 756 699" enable-background="new 0 0 756 699" xml:space="preserve">
<g>
	<g>
		<g>
			<path fill="#F4583C" d="M361.4,222v79.8c0,6.3,5.1,11.4,11.4,11.4h7.6c6.3,0,11.4-5.1,11.4-11.4V222c0-6.3-5.1-11.4-11.4-11.4
				h-7.6C366.5,210.6,361.4,215.7,361.4,222z"/>
			<path fill="#F4583C" d="M386.8,121.4l0.1,69.3h9.4v21.1h16.6v100.1h-16.6v21.1h-9.4v1.1h-0.1v67.4h29l-37.4,123.8l-37.4-123.8
				h25.6v-67.4h-0.1v-1.1H357v-21.1h-16.6V211.9H357v-21.1h9.4l0.1-69.2c-116.8,5.2-210.7,102.3-210.7,220.3v59.8H226l92.2,287.1
				h60.1h60.1l92.2-287.1h70.7v-59.8C601.3,222.5,505.3,124.6,386.8,121.4z"/>
		</g>
		<g>
			<path fill="#F4583C" d="M58.6,36.5c0,0,51.5-6.5,86.3,25.1c44.5,40.4,33.1,63.8,24.7,70.7c-8.4,6.9-38.4,18.5-56.7-21.7
				S84.2,48.8,58.6,36.5z"/>
			<path fill="#F4583C" d="M48.8,9.2c-0.7,21.4,34.7,117.3,66.7,132.1c32.7,15.1,65.1-6.1,66.4-9.7c9,6,23.8,27.4,33,54.3
				c-37,34.3-60.8,82.6-62.9,136.2c-25.4-14.7-65.5-44.8-93.5-99.7C15.4,137.8,24.9,49,48.8,9.2z"/>
		</g>
		<g>
			<path fill="#F4583C" d="M697.4,36.5c0,0-51.5-6.5-86.3,25.1c-44.5,40.4-33.1,63.8-24.7,70.7c8.4,6.9,38.4,18.5,56.7-21.7
				C661.4,70.4,671.8,48.8,697.4,36.5z"/>
			<path fill="#F4583C" d="M707.2,9.2c0.7,21.4-34.7,117.3-66.7,132.1c-32.7,15.1-65.1-6.1-66.4-9.7c-9,6-23.8,27.4-33,54.3
				c37,34.3,60.8,82.6,62.9,136.2c25.4-14.7,65.5-44.8,93.5-99.7C740.5,137.8,731.1,49,707.2,9.2z"/>
		</g>
	</g>
</g>
</svg>
