<svg id="Layer_1" data-name="Layer 1" xmlns="http://www.w3.org/2000/svg" viewBox="0 0 756 699"><defs><style>.cls-1{fill:#ff5600;}</style></defs><polygon class="cls-1" points="677.53 119.46 544.98 19.71 449.57 3.86 522.98 52.55 601.26 156.41 612.48 207.88 557.35 264.87 525.58 264.87 525.58 212.94 499.23 180.96 525.58 127.26 456.77 174.79 456.77 233.64 431.26 233.64 431.26 259.69 425.2 259.69 416.66 259.69 416.66 261.05 416.51 269.97 416.51 323.37 440.18 344.27 455.85 344.27 398.38 497.12 340.9 344.27 356.57 344.27 380.24 323.37 380.24 269.97 380.09 261.05 380.09 259.69 371.55 259.69 365.49 259.69 365.49 233.64 339.98 233.64 339.98 174.79 271.17 127.26 297.52 180.96 271.17 212.94 271.17 264.87 239.4 264.87 184.27 207.88 195.49 156.41 273.77 52.55 347.18 3.86 251.77 19.71 119.22 119.46 56.29 270.68 129.81 344.51 198.29 344.51 339.98 699 398.22 699 398.38 699 398.53 699 456.77 699 598.46 344.51 666.94 344.51 740.46 270.68 677.53 119.46"/></svg>